<?xml version="1.0" encoding="utf-8"?>
<!-- Generator: Adobe Illustrator 22.0.0, SVG Export Plug-In . SVG Version: 6.00 Build 0)  -->
<!DOCTYPE svg PUBLIC "-//W3C//DTD SVG 1.1//EN" "http://www.w3.org/Graphics/SVG/1.1/DTD/svg11.dtd">
<svg version="1.1" id="UW_x5F_Logo_x5F_2L_x5F_horz_x5F_white_x5F_type_x5F_cmyk"
	 xmlns="http://www.w3.org/2000/svg" xmlns:xlink="http://www.w3.org/1999/xlink" x="0px" y="0px" viewBox="0 0 379.4 156"
	 style="enable-background:new 0 0 379.4 156;" xml:space="preserve">
<style type="text/css">
	.st0{fill:#FFFFFF;}
	.st1{fill:#005596;}
	.st2{fill:#FFCF01;}
</style>
<g>
	<g>
		<path class="st0" d="M60.8,142.8c-70-27.3-48.2-120.3-48.2-120.3c12.6-6.6,41.3-9,48.2-9c6.9,0,35.5,2.4,48.2,9
			C108.9,22.5,130.7,115.6,60.8,142.8z"/>
		<path class="st1" d="M111.9,21.9l-0.3-1.3l-1.2-0.6c-13.4-7-42.8-9.4-49.6-9.4c-6.7,0-36.2,2.3-49.6,9.4L10,20.5l-0.3,1.3
			c-0.2,1-5.5,24.1-2.2,51c2,15.9,6.6,29.8,13.7,41.3c9,14.5,21.9,25.1,38.5,31.5l1.1,0.4l1.1-0.4c16.6-6.5,29.5-17.1,38.5-31.5
			c7.1-11.5,11.7-25.4,13.7-41.3C117.4,45.9,112.1,22.8,111.9,21.9z M60.8,142.8c-70-27.3-48.2-120.3-48.2-120.3
			c12.6-6.6,41.3-9,48.2-9c6.9,0,35.5,2.4,48.2,9C108.9,22.5,130.7,115.6,60.8,142.8z"/>
		<g>
			<g>
				<path class="st1" d="M16.9,91.1c3.1,10.2,7.9,20.1,15.4,28.7L26.6,88C22.3,89.2,19,90.3,16.9,91.1L16.9,91.1z"/>
			</g>
			<g>
				<g>
					<path class="st1" d="M46.5,65.8l9.4-48.6C48.8,17.8,37,19,27.1,21.4l7.8,46.2C38.8,66.8,42.7,66.2,46.5,65.8L46.5,65.8z
						 M44,39.6c0,1.2,0.3,2.2,0.5,2.4c0,0-1.3,0.9-1.7,1.3c-0.4,0.4-2.1,2.4-2.1,2.4s-1.7-2-2.1-2.4c-0.4-0.4-1.7-1.3-1.7-1.3
						c0.3-0.1,0.5-1.1,0.5-2.4c0-1.5-0.9-2.8-2.1-2.8c-1.8,0-2.1,1.2-2.1,1.2s-1.7-1.6-1.7-3.1c0-3.4,1.9-3.2,2.7-3.2
						c1.9,0,4.4,2.9,4.4,2.9c-0.3-0.6-0.8-1.8-0.9-2.1c-0.1-0.1-0.1-0.3-0.2-0.5c-0.3-0.7-0.6-1.8-0.1-3.2c0.4-1.3,1.3-1.9,2.1-2.8
						c0.8-1,1.1-1.3,1.1-1.3s0.3,0.3,1.1,1.3c0.8,0.9,1.7,1.5,2.1,2.8c0.5,1.4,0.2,2.5-0.1,3.2c-0.1,0.2-0.1,0.4-0.2,0.5
						c-0.1,0.4-0.6,1.5-0.9,2.1c0,0,2.5-2.9,4.4-2.9c0.8,0,2.7-0.2,2.7,3.2c0,1.5-1.7,3.1-1.7,3.1s-0.2-1.2-2.1-1.2
						C44.9,36.8,44,38.1,44,39.6z"/>
				</g>
			</g>
			<g>
				<path class="st1" d="M24.5,75.7c1.7-0.5,3.5-0.9,5.2-1.3l0.4-0.1c0.7-0.2,1.5-0.3,2.2-0.5l0.1,0c0.2,0,0.4-0.1,0.6-0.1
					c1.1-0.2,1.9-0.4,2.8-0.6l0.1,0l0,0c3.2-0.6,6.4-1.1,9.4-1.5l0,0l0.1-0.4l0.8-3.9c-3.6,0.4-7.4,1-11.1,1.7
					c-3.8,0.7-7.7,1.6-11.5,2.6c-3.5,0.9-7,2-10.2,3.1c0,0,0,0,0,0h0c0.1,0.8,0.3,2.3,0.6,4.1c3.2-1.1,6.8-2.1,10.3-3.1L24.5,75.7z"
					/>
			</g>
			<g>
				<path class="st1" d="M37.9,85.3l2.3,13.6l2.7-14.4C41.3,84.7,39.7,85,37.9,85.3L37.9,85.3z"/>
			</g>
			<g>
				<path class="st1" d="M28,80.7l0.1,0c0.9-0.2,1.8-0.5,2.6-0.7l0.2,0c0.9-0.2,1.8-0.4,2.8-0.6l0.2,0c1-0.2,2-0.4,2.9-0.6
					c2.6-0.5,5.1-1,7.5-1.3l0.1,0l0.8-4.2c-2.9,0.4-6,0.9-9,1.5c-1,0.2-1.9,0.4-3,0.6l-0.2,0c-0.9,0.2-1.8,0.4-2.7,0.6l-0.2,0
					c-1.8,0.4-3.6,0.9-5.4,1.3c-3.4,0.9-6.7,1.9-10.3,3.1l0,0c0.1,0.7,0.3,1.5,0.5,2.3c0,0.2,0.1,0.4,0.1,0.6c0.1,0.5,0.2,1,0.4,1.5
					c3.2-1.1,6.7-2.3,10.2-3.2C26.3,81.1,27.1,80.9,28,80.7z"/>
			</g>
			<g>
				<path class="st1" d="M34.2,80.7l-0.3,0.1c-2.7,0.6-5.5,1.3-8.2,2.1c-3.5,1-6.9,2.1-10.1,3.2l0,0c0.3,1.2,0.6,2.4,1,3.6
					c0,0,0.1,0,0.1-0.1c5.8-2.1,15.1-5,26.6-6.7l0,0l0.8-4.1c-2.3,0.3-4.8,0.8-7.2,1.3C35.9,80.3,35,80.5,34.2,80.7z"/>
			</g>
			<g>
				<path class="st1" d="M23.4,70.2l-8.1-44.8c0,0,0,0-0.1,0c0,0-5.2,22.3-2,47.8C16.4,72.2,19.8,71.1,23.4,70.2
					C23.4,70.2,23.4,70.2,23.4,70.2z"/>
			</g>
			<g>
				<path class="st1" d="M63.5,65l-2.7-13.6L58.1,65c0.9,0,1.8,0,2.7,0C61.7,65,62.6,65,63.5,65z"/>
			</g>
			<g>
				<path class="st1" d="M64.7,70.7c-0.1-0.6-0.8-3.6-0.9-4.2l0,0c-0.9,0-1.9,0-3,0c-1,0-2,0-3,0l0,0c-0.1,0.6-0.8,3.6-0.9,4.2
					c1.4,0,2.7-0.1,3.9-0.1C62,70.6,63.3,70.6,64.7,70.7z"/>
			</g>
			<g>
				<polygon class="st1" points="56.9,70.8 56.9,70.8 56.9,70.8 				"/>
			</g>
			<g>
				<path class="st1" d="M60.8,76.1c1.5,0,3.1,0,5,0.1L65,72.1l-0.1,0C63.3,72,62,72,60.8,72c-1.2,0-2.6,0-4.1,0.1l-0.1,0l-0.8,4.1
					l0,0C57.7,76.1,59.3,76.1,60.8,76.1z"/>
			</g>
			<g>
				<path class="st1" d="M66.9,81.8l-0.8-4.1l-0.1,0c-2-0.1-3.7-0.1-5.2-0.1c-1.6,0-3.3,0-5.3,0.2l0,0l-0.8,4.1
					c2.2-0.1,4.2-0.2,6.1-0.2C62.7,81.6,64.7,81.7,66.9,81.8z"/>
			</g>
			<g>
				<g>
					<path class="st1" d="M67.2,83.3c-2.3-0.1-4.3-0.2-6.4-0.2c-2,0-4.1,0.1-6.4,0.2l0,0L44.8,131c4.7,3.3,10,6.1,16,8.5
						c6-2.4,11.3-5.2,16-8.5L67.2,83.3L67.2,83.3z M57.4,126.3c-1.7,0-6-1.7-6.3-8.3c-0.2-4.9,1.2-6.2,1.2-6.2l2.6,4.8
						c0,6.9,4.9,7,4.9,7C59.8,126.4,57.4,126.3,57.4,126.3z M61.3,128.2h-1.2v-7.1c-0.7-0.3-2.1-1-2.1-3.7c0-3.2-0.4-5.3-0.8-6.8
						c-0.4-1.5-3-3.1-3-3.1c2.6-2.9,4.8,1,4.7,0.5c-0.2-0.9,0.3-2.5,0.6-3.2c0.3-0.8,1.1-1.8,1.1-1.8s0.8,1,1.1,1.8
						c0.3,0.8,0.8,2.4,0.6,3.2c-0.1,0.5,2.2-3.4,4.7-0.5c0,0-2.5,1.6-3,3.1c-0.4,1.5-0.8,3.6-0.8,6.8c0,2.9-1.6,3.5-2.2,3.7V128.2z
						 M70.5,118c-0.3,6.7-4.6,8.3-6.3,8.3c0,0-2.4,0.1-2.4-2.7c0,0,4.9-0.1,4.9-7l2.6-4.8C69.3,111.8,70.7,113.1,70.5,118z"/>
				</g>
			</g>
			<g>
				<path class="st1" d="M97,77.2c-1.8-0.5-3.6-0.9-5.3-1.3l-0.2-0.1c-0.8-0.2-1.6-0.4-2.5-0.5l-0.5-0.1c-1-0.2-2-0.4-2.8-0.6
					c-3.1-0.6-6.1-1.1-9.1-1.5l-0.1,0l0.8,4.3l0.1,0c2.4,0.3,4.8,0.8,7.3,1.3l0.1,0c3.8,0.8,7.6,1.7,11.4,2.8c3.4,1,6.7,2,9.9,3.2
					l0.2,0.1c0.3-1.5,0.7-2.9,0.9-4.4l-0.2-0.1C103.9,79.1,100.5,78.1,97,77.2z"/>
			</g>
			<g>
				<path class="st1" d="M96,82.8L96,82.8L96,82.8c-0.8-0.2-1.7-0.5-2.6-0.7l-0.1,0c-0.9-0.2-1.8-0.5-2.7-0.7
					c-2-0.5-3.9-0.9-5.9-1.3c-2.4-0.5-4.8-0.9-7.1-1.2l-0.1,0l0.9,4.1l0,0c1.7,0.2,3.4,0.5,5.4,0.9v0l0.1,0c0.3,0.1,0.6,0.1,0.9,0.2
					l0.8,0.1c0.2,0,0.3,0.1,0.5,0.1C87,84.5,88,84.7,89,85c0.3,0.1,0.5,0.1,0.8,0.2c1.1,0.2,2,0.5,2.8,0.7c0.1,0,0.2,0.1,0.3,0.1
					c0.7,0.2,1.4,0.4,2,0.5l0.5,0.1c3.3,0.9,6.5,2,9.4,3.1c0.1,0,0.2,0.1,0.2,0.1c0.4-1.2,0.7-2.5,1-3.7l-0.2-0.1
					C102.7,84.8,99.4,83.8,96,82.8z"/>
			</g>
			<g>
				<path class="st1" d="M78.7,84.5l2.7,14.4l2.3-13.6c0,0,0,0,0,0C82,85,80.4,84.7,78.7,84.5z"/>
			</g>
			<g>
				<path class="st1" d="M95.1,88l-5.8,31.8c7.4-8.6,12.3-18.5,15.4-28.6l0,0C101.6,90,98.4,89,95.1,88z"/>
			</g>
			<g>
				<path class="st1" d="M108.4,73.3c3.3-25.5-2-47.9-2-47.9c0,0,0,0,0,0l-8.1,44.8c0,0,0,0,0,0C101.8,71.2,105.2,72.2,108.4,73.3z"
					/>
			</g>
			<g>
				<g>
					<path class="st1" d="M86.8,67.6l7.8-46.2c-9.9-2.4-21.7-3.6-28.8-4.1l9.4,48.6l0,0C78.9,66.3,82.8,66.9,86.8,67.6z M74.2,37.1
						l1.7-1l-4.2-2.4l0.7-0.2l-1.6-3l3.4-0.1l-0.1-0.7l4.2,2.5v-4.9l0.6,0.5l1.7-2.9l1.7,2.9l0.6-0.5v4.9l4.2-2.5l-0.1,0.7l3.4,0.1
						l-1.7,3l0.7,0.2l-4.2,2.4l1.7,1l-0.7,0.2l1.6,3l-3.4,0.1l0.1,0.7l-3.2-1.9v6.3h-0.7h-0.1h-0.7v-6.3l-3.2,1.9l0.1-0.7l-3.4-0.1
						l1.7-3L74.2,37.1z"/>
				</g>
			</g>
			<g>
				<path class="st1" d="M98,71.7c-0.8-0.2-1.6-0.4-2.5-0.6L95.2,71c-2.9-0.7-5.8-1.4-8.7-1.9c-3.8-0.7-7.5-1.3-11.1-1.7
					c0.1,0.6,0.6,3.7,0.7,4.3l0,0c3.1,0.4,6.3,0.9,9.5,1.5l0.1,0c0.9,0.2,1.8,0.4,2.8,0.6l0.5,0.1c1,0.2,1.8,0.4,2.6,0.6l0.1,0
					c0.8,0.2,1.6,0.4,2.6,0.6l0.7,0.2c0.6,0.2,1.3,0.3,1.9,0.5l0.1,0c0.1,0,0.1,0,0.2,0l0.1,0c3.5,0.9,6.9,1.9,10.1,3l0.1,0
					c0.2-1.4,0.4-2.7,0.6-4l-0.1,0C104.9,73.6,101.5,72.6,98,71.7z"/>
			</g>
			<polygon class="st2" points="15.5,85.9 15.5,85.9 15.5,85.9 			"/>
			<path class="st2" d="M63.5,65c-0.9,0-1.8,0-2.8,0c-0.9,0-1.8,0-2.7,0c0,0-0.3,1.4-0.3,1.4l0,0c0.9,0,2,0,3,0c1,0,2,0,3,0l0,0
				C63.8,66.5,63.5,65,63.5,65z"/>
			<path class="st2" d="M46.5,65.8c-3.7,0.4-7.6,1-11.6,1.8c0,0,0,0,0,0c-3.9,0.7-7.7,1.6-11.5,2.6c0,0,0,0,0,0
				c-3.5,0.9-6.9,2-10.2,3.1c0,0,0,0.1,0,0.1c0.1,0.4,0.1,0.8,0.2,1.2c0,0,0,0,0,0c0,0,0,0,0,0c0,0,0,0.1,0,0.1h0c0,0,0,0,0,0
				c3.2-1.1,6.7-2.1,10.2-3.1c3.8-1,7.6-1.9,11.5-2.6c3.8-0.7,7.5-1.3,11.1-1.7L46.5,65.8L46.5,65.8z"/>
			<path class="st2" d="M13.2,73.4C13.2,73.4,13.2,73.4,13.2,73.4l0.1,1.2c0,0,0,0,0,0C13.3,74.2,13.3,73.8,13.2,73.4z"/>
			<path class="st2" d="M98.3,70.3C98.3,70.3,98.3,70.3,98.3,70.3c-3.8-1-7.7-1.9-11.5-2.7l0,0c-3.9-0.8-7.8-1.4-11.6-1.8l0,0l0,0.1
				c0,0,0.2,1.2,0.2,1.2c0,0,0,0.1,0,0.1c3.6,0.4,7.3,1,11.1,1.7c2.9,0.6,5.8,1.2,8.7,1.9l0.3,0.1c0.9,0.2,1.7,0.4,2.5,0.6
				c3.5,0.9,6.9,2,10.1,3.1l0.1,0c0-0.2,0.1-0.4,0.1-0.6c0-0.2,0.1-0.5,0.1-0.7c0,0,0-0.1,0-0.1C105.2,72.2,101.8,71.2,98.3,70.3z"
				/>
			<path class="st2" d="M43.2,82.9c-11.4,1.7-20.8,4.6-26.6,6.7c-0.1,0-0.1,0-0.1,0.1c0,0,0.4,1.4,0.4,1.4l0,0
				c2-0.8,5.4-1.9,9.6-3.1c0,0,0,0,0,0c3.7-1,7.5-1.9,11.3-2.7l0,0c1.8-0.3,3.4-0.6,5-0.9L43.2,82.9L43.2,82.9z"/>
			<path class="st2" d="M104.9,89.7c-3-1.1-6.1-2.1-9.4-3.1l-0.5-0.1c-0.7-0.2-1.3-0.4-2-0.5c-0.1,0-0.2-0.1-0.3-0.1
				c-0.8-0.2-1.8-0.4-2.8-0.7C89.5,85.1,89.3,85,89,85c-1-0.2-2-0.4-2.9-0.6c-0.2,0-0.3-0.1-0.5-0.1l-0.8-0.1
				C84.6,84,84.3,84,84,83.9l-0.1,0v0c-2-0.4-3.7-0.7-5.4-0.9l0,0l0,0.1l0.2,1.2l0,0.1c1.6,0.2,3.3,0.5,5,0.9c0,0,0,0,0,0
				c3.8,0.7,7.6,1.6,11.3,2.7c0,0,0,0,0,0c3.3,0.9,6.5,2,9.6,3.1l0,0c0,0,0-0.1,0-0.1c0.1-0.4,0.2-0.8,0.3-1.1c0,0,0-0.1,0-0.1
				C105,89.7,105,89.7,104.9,89.7z"/>
			<path class="st2" d="M104.7,91l0.3-1.1c0,0,0,0,0,0C104.9,90.3,104.8,90.6,104.7,91C104.7,91,104.7,91,104.7,91z"/>
			<path class="st2" d="M66.9,81.8c-2.2-0.1-4.2-0.2-6.2-0.2c-1.9,0-3.8,0.1-6.1,0.2l-0.3,1.5l0,0c2.3-0.1,4.3-0.2,6.4-0.2
				c2,0,4.1,0.1,6.4,0.2l0,0L66.9,81.8z"/>
			<polygon class="st2" points="66.9,81.9 67.1,83.1 66.9,81.9 			"/>
			<path class="st2" d="M64.7,70.7c-1.4,0-2.7-0.1-3.9-0.1c-1.2,0-2.5,0-3.9,0.1c0,0.1-0.3,1.4-0.3,1.4l0.1,0
				c1.6-0.1,2.9-0.1,4.1-0.1c1.2,0,2.5,0,4.1,0.1l0.1,0C65,72.1,64.7,70.7,64.7,70.7z"/>
			<path class="st2" d="M45.4,71.6c-3,0.4-6.2,0.9-9.4,1.5l0,0l-0.1,0c-0.8,0.2-1.7,0.3-2.8,0.6c-0.2,0-0.4,0.1-0.6,0.1l-0.1,0
				c-0.8,0.2-1.5,0.3-2.2,0.5l-0.4,0.1c-1.7,0.4-3.5,0.8-5.2,1.3l-0.1,0c-3.5,0.9-7.1,2-10.3,3.1c0,0,0,0.1,0,0.1c0,0,0,0,0,0
				c0.1,0.4,0.1,0.8,0.2,1.2c0,0,0,0,0,0c0,0,0,0.1,0,0.2l0,0c3.6-1.2,7-2.2,10.3-3.1c1.8-0.5,3.6-0.9,5.4-1.3l0.2,0
				c0.9-0.2,1.8-0.4,2.7-0.6l0.2,0c1-0.2,2-0.4,3-0.6c3.1-0.6,6.1-1.1,9-1.5l0-0.1c0,0,0,0,0,0l0.2-1.2c0,0,0,0,0,0L45.4,71.6
				L45.4,71.6z"/>
			<polygon class="st2" points="45.4,71.7 45.4,71.7 45.1,73 45.1,73 45.4,71.7 			"/>
			<path class="st2" d="M14,78.9c0.1,0.4,0.1,0.8,0.2,1.2c0,0,0,0,0,0C14.2,79.7,14.1,79.3,14,78.9C14,78.9,14,78.9,14,78.9z"/>
			<polygon class="st2" points="14.3,80.1 14.3,80.1 14.3,80.1 			"/>
			<path class="st2" d="M107.5,78.8c-3.2-1.1-6.6-2.1-10.1-3l-0.1,0c-0.1,0-0.1,0-0.2,0l-0.1,0c-0.6-0.2-1.3-0.3-1.9-0.5L94.5,75
				c-1-0.2-1.8-0.4-2.6-0.6l-0.1,0c-0.8-0.2-1.6-0.4-2.6-0.6l-0.5-0.1c-1-0.2-1.9-0.4-2.8-0.6l-0.1,0c-3.2-0.6-6.4-1.1-9.5-1.5l0,0
				c0,0.1,0,0.1,0,0.1l0.2,1.2l0,0.1l0.1,0c3,0.4,6,0.9,9.1,1.5c0.9,0.2,1.8,0.4,2.8,0.6l0.5,0.1c0.8,0.2,1.7,0.4,2.5,0.5l0.2,0.1
				c1.8,0.4,3.6,0.9,5.3,1.3c3.5,0.9,6.9,1.9,10.2,3l0.2,0.1c0,0,0-0.1,0-0.1c0.1-0.4,0.1-0.8,0.2-1.2c0,0,0-0.1,0-0.1L107.5,78.8z"
				/>
			<path class="st2" d="M107.4,80.1l0.2-1.2C107.5,79.3,107.4,79.7,107.4,80.1C107.4,80.1,107.4,80.1,107.4,80.1z"/>
			<path class="st2" d="M65.8,76.2c-1.9-0.1-3.5-0.1-5-0.1c-1.5,0-3.1,0-5,0.1l0,0l0,0.1l-0.2,1.2l0,0.1l0,0c2-0.1,3.7-0.2,5.3-0.2
				c1.6,0,3.2,0,5.2,0.1l0.1,0L65.8,76.2z"/>
			<path class="st2" d="M44.2,77.3c-2.4,0.3-4.9,0.8-7.5,1.3c-0.9,0.2-1.9,0.4-2.9,0.6l-0.2,0c-0.9,0.2-1.8,0.4-2.8,0.6l-0.2,0
				c-0.9,0.2-1.8,0.4-2.6,0.7l-0.1,0c-0.8,0.2-1.7,0.4-2.6,0.7c-3.5,1-7,2.1-10.2,3.2c0.1,0.4,0.2,0.8,0.3,1.2c0,0,0,0.1,0,0.1
				c0,0,0,0.1,0,0.1l0,0c3.2-1.2,6.6-2.2,10.1-3.2c2.7-0.8,5.5-1.5,8.2-2.1l0.3-0.1c0.8-0.2,1.7-0.4,2.6-0.6
				c2.4-0.5,4.9-0.9,7.2-1.3C44,78.8,44.3,77.3,44.2,77.3L44.2,77.3z"/>
			<polygon class="st2" points="15.5,85.9 15.5,85.9 15.5,85.9 			"/>
			<path class="st2" d="M15.5,85.8C15.5,85.9,15.5,85.9,15.5,85.8L15.5,85.8C15.5,85.9,15.5,85.9,15.5,85.8z"/>
			<path class="st2" d="M106.2,84.6c-3.2-1.1-6.5-2.2-9.9-3.2c-3.8-1.1-7.6-2-11.4-2.8l-0.1,0c-2.5-0.5-4.9-0.9-7.3-1.3l-0.1,0
				l0,0.1l0.2,1.2l0,0.1l0.1,0c2.3,0.3,4.7,0.8,7.1,1.2c2,0.4,4,0.8,5.9,1.3c0.9,0.2,1.8,0.5,2.7,0.7l0.1,0c0.9,0.2,1.8,0.5,2.6,0.7
				l0,0h0c3.3,0.9,6.7,2,9.8,3.1l0.2,0.1c0,0,0-0.1,0-0.1c0.1-0.4,0.2-0.8,0.3-1.2c0,0,0-0.1,0-0.1L106.2,84.6z"/>
			<path class="st2" d="M48.2,38c0,0,1.7-1.6,1.7-3.1c0-3.4-1.9-3.2-2.7-3.2c-1.9,0-4.4,2.9-4.4,2.9c0.3-0.6,0.8-1.8,0.9-2.1
				c0.1-0.1,0.1-0.3,0.2-0.5c0.3-0.7,0.6-1.8,0.1-3.2c-0.4-1.3-1.3-1.9-2.1-2.8c-0.8-1-1.1-1.3-1.1-1.3S40.5,25,39.7,26
				c-0.8,0.9-1.7,1.5-2.1,2.8c-0.5,1.4-0.2,2.5,0.1,3.2c0.1,0.2,0.2,0.4,0.2,0.5c0.1,0.4,0.6,1.5,0.9,2.1c0,0-2.5-2.9-4.4-2.9
				c-0.8,0-2.7-0.2-2.7,3.2c0,1.5,1.7,3.1,1.7,3.1s0.2-1.2,2.1-1.2c1.2,0,2.1,1.3,2.1,2.8c0,1.2-0.2,2.2-0.5,2.4
				c0,0,1.3,0.9,1.7,1.3c0.4,0.4,2.1,2.4,2.1,2.4s1.7-2,2.1-2.4c0.4-0.4,1.7-1.3,1.7-1.3c-0.3-0.1-0.5-1.1-0.5-2.4
				c0-1.5,0.9-2.8,2.1-2.8C47.9,36.8,48.2,38,48.2,38z"/>
			<path class="st2" d="M61.8,123.6c0,2.8,2.4,2.7,2.4,2.7c1.7,0,6-1.7,6.3-8.3c0.2-4.9-1.2-6.2-1.2-6.2l-2.6,4.8
				C66.7,123.5,61.8,123.6,61.8,123.6z"/>
			<path class="st2" d="M54.8,116.6l-2.6-4.8c0,0-1.4,1.3-1.2,6.2c0.3,6.7,4.6,8.3,6.3,8.3c0,0,2.4,0.1,2.4-2.7
				C59.8,123.6,54.8,123.5,54.8,116.6z"/>
			<path class="st2" d="M63.5,117.5c0-3.2,0.4-5.3,0.8-6.8c0.4-1.5,3-3.1,3-3.1c-2.6-2.9-4.8,1-4.7,0.5c0.2-0.9-0.3-2.5-0.6-3.2
				c-0.3-0.8-1.1-1.8-1.1-1.8s-0.8,1-1.1,1.8c-0.3,0.8-0.8,2.4-0.6,3.2c0.1,0.5-2.2-3.4-4.7-0.5c0,0,2.5,1.6,3,3.1
				c0.4,1.5,0.8,3.6,0.8,6.8c0,2.7,1.4,3.4,2.1,3.7v7.1h1.2v-7C61.9,121,63.5,120.3,63.5,117.5z"/>
			<polygon class="st2" points="76.7,40.3 76.6,41.1 79.8,39.2 79.8,45.5 80.5,45.5 80.6,45.5 81.3,45.5 81.3,39.2 84.6,41.1 
				84.4,40.3 87.8,40.3 86.2,37.3 86.9,37.1 85.2,36.1 89.3,33.7 88.7,33.4 90.3,30.5 86.9,30.4 87,29.7 82.8,32.1 82.8,27.2 
				82.2,27.7 80.6,24.8 78.9,27.7 78.3,27.2 78.3,32.1 74.1,29.7 74.2,30.4 70.8,30.5 72.5,33.4 71.8,33.7 75.9,36.1 74.2,37.1 
				74.9,37.3 73.3,40.3 			"/>
		</g>
	</g>
	<g>
		<path class="st0" d="M166,63.6c0,5.6-3.5,9.2-8.8,9.2c-5.3,0-8.8-3.6-8.8-9.2V37.7h-5.1V64c0,7.8,5.8,13.5,13.9,13.5
			c8.1,0,13.9-5.7,13.9-13.5V37.7H166V63.6z"/>
		<path class="st0" d="M183.7,60.3c0-4.2,2.2-6.6,6.1-6.6c3.9,0,6,2.3,6,6.6v16.9h4.9V59.7c0-3.3-1-5.9-2.9-7.7
			c-1.7-1.7-4.2-2.6-7.2-2.6c-2.7,0-5.1,0.9-6.9,2.5v-2.2h-4.9v27.6h4.9V60.3z"/>
		<rect x="207.9" y="37.7" class="st0" width="5.4" height="5.4"/>
		<rect x="208.1" y="49.6" class="st0" width="4.9" height="27.6"/>
		<polygon class="st0" points="231.6,77.2 241.8,49.6 236.5,49.6 229.6,69.9 222.7,49.6 217.4,49.6 227.5,77.2 		"/>
		<path class="st0" d="M255.2,49.3c-7.1,0-11.4,5.3-11.4,14.1c0,9.1,4.3,14.1,12.1,14.1c4.8,0,7.4-1.6,10.1-4.2l0.4-0.4l-3.4-3
			l-0.3,0.3c-2.2,2.2-3.8,2.9-6.6,2.9c-4.6,0-7.2-2.9-7.3-8.2h17.9v-2.3C266.6,54.4,262.3,49.3,255.2,49.3z M248.7,61
			c0.1-1.8,0.2-2.5,0.7-3.7c1-2.3,3.2-3.7,5.7-3.7s4.8,1.4,5.7,3.7c0.5,1.3,0.6,2,0.7,3.7H248.7z"/>
		<path class="st0" d="M284.8,49.3c-2.7,0-5.3,1-6.9,2.7v-2.3H273v27.6h4.9V60.4c0-3.9,2.4-6.6,5.9-6.6c1.9,0,2.8,0.4,4.2,1.8
			l0.4,0.4l3.6-3.6l-0.4-0.4C289.7,50.1,287.7,49.3,284.8,49.3z"/>
		<path class="st0" d="M315.2,68.9c0-6.2-4.7-7.3-8.3-7.7l-4.3-0.4c-3.7-0.3-4.2-1.9-4.2-3.4c0-2.5,1.9-3.9,5.4-3.9
			c2.8,0,5,0.7,6.8,2l0.3,0.3l3.2-3.2l-0.4-0.3c-2.4-1.9-5.8-3-9.9-3c-6.1,0-10.3,3.3-10.3,8.3c0,4.6,2.8,7.2,8.4,7.6l4.4,0.4
			c3.5,0.3,4,2,4,3.4c0,3.7-4.1,4.2-6.6,4.2c-3.4,0-6-1-7.9-2.9l-0.4-0.4l-3.3,3.3l0.4,0.4c2.9,2.7,6.3,4,11.2,4
			C310.8,77.5,315.2,74.1,315.2,68.9z"/>
		<rect x="320.2" y="37.7" class="st0" width="5.4" height="5.4"/>
		<rect x="320.5" y="49.6" class="st0" width="4.9" height="27.6"/>
		<path class="st0" d="M334,69.5c0,4.6,2.9,7.6,7.3,7.6h3.3v-4.3H342c-2.1,0-3.1-1.1-3.1-3.4V53.7h5.7v-4h-5.7v-8.3H334v8.3h-3.3v4
			h3.3V69.5z"/>
		<path class="st0" d="M360,83.2l12.3-33.6H367l-6.9,20.3l-6.9-20.3h-5.3l9.7,26.5l-1.8,5c-0.8,2.3-1.4,3-3.9,3h-1.7v4.5h2.2
			c2.3,0,4.2-0.7,5.5-2C358.8,85.8,359.4,84.8,360,83.2z"/>
		<path class="st0" d="M150.6,107.9c-2.1,0-4,0.7-5.4,2.2c-2,2.1-2.3,4.9-2.3,7.4c0,2.5,0.3,5.3,2.3,7.4c1.4,1.4,3.3,2.2,5.4,2.2
			c2.1,0,4-0.7,5.4-2.2c2-2.1,2.3-4.9,2.3-7.4c0-2.5-0.3-5.3-2.3-7.4C154.6,108.7,152.7,107.9,150.6,107.9z M153.4,122.6
			c-0.7,0.7-1.8,1.1-2.9,1.1c-1.1,0-2.1-0.4-2.8-1.1c-1.1-1.1-1.3-3.1-1.3-5.1c0-2,0.2-4,1.3-5.1c0.8-0.8,1.7-1.1,2.8-1.1
			c1.1,0,2.1,0.4,2.9,1.1c1.2,1.2,1.3,3.2,1.3,5.1C154.7,119.4,154.6,121.4,153.4,122.6z"/>
		<path class="st0" d="M162.9,105.4v2.8h-2.3v3h2.3v15.6h3.6v-15.6h3.8v-3h-3.8v-2.8c0-1.4,0.6-2.1,1.9-2.1h1.9v-3.2h-2.4
			C164.8,100.1,162.9,102.2,162.9,105.4z"/>
		<polygon class="st0" points="210.8,116.9 202.7,87.4 198.3,87.4 190.2,116.9 183.1,87.4 177.6,87.4 187.7,126.8 192.3,126.8 
			200.5,97.5 208.6,126.8 213.2,126.8 223.3,87.4 217.9,87.4 		"/>
		<rect x="227.3" y="99.3" class="st0" width="4.9" height="27.6"/>
		<rect x="227.1" y="87.4" class="st0" width="5.4" height="5.4"/>
		<path class="st0" d="M252.3,99c-2.7,0-5.1,0.9-6.9,2.5v-2.2h-4.9v27.6h4.9V110c0-4.2,2.2-6.6,6.1-6.6c3.9,0,6,2.3,6,6.6v16.9h4.9
			v-17.5c0-3.3-1-5.9-2.9-7.7C257.7,99.9,255.2,99,252.3,99z"/>
		<path class="st0" d="M286.1,101.5c-2.2-2.2-4.7-2.6-7-2.6c-2.7,0-5.3,0.9-6.8,2.5c-3,3-3.4,8.1-3.4,11.6s0.4,8.6,3.4,11.6
			c1.5,1.5,4.1,2.5,6.8,2.5c2.2,0,4.8-0.3,7.1-2.7v2.3h4.8V87.4h-4.9V101.5z M279.9,122.7c-5.5,0-6.2-4.9-6.2-9.6s0.7-9.6,6.2-9.6
			c5.4,0,6.1,4.6,6.1,9.6C286.1,118.1,285.3,122.7,279.9,122.7z"/>
		<path class="st0" d="M311,110.9l-4.3-0.4c-3.7-0.3-4.2-1.9-4.2-3.4c0-2.5,1.9-3.9,5.4-3.9c2.8,0,5,0.7,6.8,2l0.3,0.3l3.2-3.2
			l-0.4-0.3c-2.4-1.9-5.8-3-9.9-3c-6.1,0-10.3,3.3-10.3,8.3c0,4.6,2.8,7.2,8.4,7.6l4.4,0.4c3.5,0.3,4,2,4,3.4c0,3.7-4.1,4.2-6.6,4.2
			c-3.4,0-6-1-7.9-2.9l-0.4-0.4l-3.3,3.3l0.4,0.4c2.9,2.7,6.3,4,11.2,4c6.9,0,11.3-3.4,11.3-8.6C319.3,112.4,314.5,111.2,311,110.9z
			"/>
		<path class="st0" d="M335.3,99c-3.1,0-5.9,1.1-8,3.2c-3,3-3.4,7.2-3.4,10.9c0,3.7,0.4,7.9,3.4,10.9c2.1,2.1,4.8,3.2,8,3.2
			c3.1,0,5.9-1.1,8-3.2c3-3,3.4-7.2,3.4-10.9c0-3.7-0.4-7.9-3.4-10.9C341.2,100.1,338.4,99,335.3,99z M339.8,120.9
			c-1.2,1.2-2.8,1.8-4.5,1.8c-1.7,0-3.3-0.6-4.5-1.8c-1.8-1.8-2-4.8-2-7.8c0-3,0.2-6.1,2-7.9c1.2-1.2,2.7-1.8,4.5-1.8
			c1.7,0,3.3,0.6,4.5,1.8c1.8,1.8,2,5,2,7.9S341.6,119.1,339.8,120.9z"/>
		<path class="st0" d="M372,101.6c-1.8-1.8-3.9-2.6-6.7-2.6c-2.7,0-5.3,1-6.9,2.7v-2.3h-4.9v27.6h4.9V110c0-3.9,2.4-6.6,5.9-6.6
			c1.9,0,2.8,0.4,4.2,1.8l0.4,0.4l3.6-3.6L372,101.6z"/>
	</g>
</g>
</svg>
